<?xml version="1.0" encoding="UTF-8"?>
<svg id="_0" data-name=" 0" xmlns="http://www.w3.org/2000/svg" version="1.1" xmlns:xlink="http://www.w3.org/1999/xlink" viewBox="0 0 940.3 262.5">
  <defs>
    <style>
      .cls-1, .cls-2, .cls-3, .cls-4, .cls-5, .cls-6, .cls-7, .cls-8, .cls-9, .cls-10 {
        stroke: #a89bc9;
        stroke-miterlimit: 10;
        stroke-width: 2px;
      }

      .cls-1, .cls-11 {
        fill: #e1f9fa;
      }

      .cls-2 {
        fill: url(#_名称未設定グラデーション_178-4);
      }

      .cls-12, .cls-13, .cls-14, .cls-15, .cls-11, .cls-16, .cls-17, .cls-18, .cls-19, .cls-20 {
        stroke-width: 0px;
      }

      .cls-12, .cls-7 {
        fill: #ffe3ab;
      }

      .cls-3 {
        fill: url(#_名称未設定グラデーション_178-3);
      }

      .cls-4 {
        fill: url(#_名称未設定グラデーション_178-8);
      }

      .cls-13 {
        fill: url(#_名称未設定グラデーション_178-10);
      }

      .cls-5 {
        fill: url(#_名称未設定グラデーション_178-5);
      }

      .cls-14 {
        fill: url(#_名称未設定グラデーション_178-12);
      }

      .cls-15 {
        fill: url(#_名称未設定グラデーション_178-14);
      }

      .cls-6 {
        fill: url(#_名称未設定グラデーション_178-6);
      }

      .cls-16 {
        fill: url(#_名称未設定グラデーション_178-11);
      }

      .cls-17 {
        fill: url(#_名称未設定グラデーション_178-9);
      }

      .cls-18, .cls-10 {
        fill: url(#_名称未設定グラデーション_178);
      }

      .cls-8 {
        fill: url(#_名称未設定グラデーション_178-7);
      }

      .cls-19 {
        fill: url(#_名称未設定グラデーション_178-15);
      }

      .cls-9 {
        fill: url(#_名称未設定グラデーション_178-2);
      }

      .cls-20 {
        fill: url(#_名称未設定グラデーション_178-13);
      }
    </style>
    <linearGradient id="_名称未設定グラデーション_178" data-name="名称未設定グラデーション 178" x1="306.3" y1="187.4" x2="306.3" y2="95.6" gradientUnits="userSpaceOnUse">
      <stop offset="0" stop-color="#e6d7b8"/>
      <stop offset="1" stop-color="#ffffab"/>
      <stop offset="1" stop-color="#fff"/>
    </linearGradient>
    <linearGradient id="_名称未設定グラデーション_178-2" data-name="名称未設定グラデーション 178" x1="388.8" y1="187.7" x2="388.8" y2="116.3" xlink:href="#_名称未設定グラデーション_178"/>
    <linearGradient id="_名称未設定グラデーション_178-3" data-name="名称未設定グラデーション 178" x1="446.9" y1="187.7" x2="446.9" y2="93.5" xlink:href="#_名称未設定グラデーション_178"/>
    <linearGradient id="_名称未設定グラデーション_178-4" data-name="名称未設定グラデーション 178" x1="497.4" y1="187.4" x2="497.4" y2="116.6" xlink:href="#_名称未設定グラデーション_178"/>
    <linearGradient id="_名称未設定グラデーション_178-5" data-name="名称未設定グラデーション 178" x1="563.5" y1="188.3" x2="563.5" y2="116.6" xlink:href="#_名称未設定グラデーション_178"/>
    <linearGradient id="_名称未設定グラデーション_178-6" data-name="名称未設定グラデーション 178" x1="643.6" y1="186.5" x2="643.6" y2="94.7" xlink:href="#_名称未設定グラデーション_178"/>
    <linearGradient id="_名称未設定グラデーション_178-7" data-name="名称未設定グラデーション 178" x1="715.6" y1="188.3" x2="715.6" y2="116.6" xlink:href="#_名称未設定グラデーション_178"/>
    <linearGradient id="_名称未設定グラデーション_178-8" data-name="名称未設定グラデーション 178" x1="800.1" y1="188.6" x2="800.1" y2="94.1" xlink:href="#_名称未設定グラデーション_178"/>
    <linearGradient id="_名称未設定グラデーション_178-9" data-name="名称未設定グラデーション 178" x1="388.8" y1="187.7" x2="388.8" y2="116.3" xlink:href="#_名称未設定グラデーション_178"/>
    <linearGradient id="_名称未設定グラデーション_178-10" data-name="名称未設定グラデーション 178" x1="446.9" y1="187.7" x2="446.9" y2="93.5" xlink:href="#_名称未設定グラデーション_178"/>
    <linearGradient id="_名称未設定グラデーション_178-11" data-name="名称未設定グラデーション 178" x1="497.4" y1="187.4" x2="497.4" y2="116.6" xlink:href="#_名称未設定グラデーション_178"/>
    <linearGradient id="_名称未設定グラデーション_178-12" data-name="名称未設定グラデーション 178" x1="563.5" y1="188.3" x2="563.5" y2="116.6" xlink:href="#_名称未設定グラデーション_178"/>
    <linearGradient id="_名称未設定グラデーション_178-13" data-name="名称未設定グラデーション 178" x1="643.6" y1="186.5" x2="643.6" y2="94.7" xlink:href="#_名称未設定グラデーション_178"/>
    <linearGradient id="_名称未設定グラデーション_178-14" data-name="名称未設定グラデーション 178" x1="715.6" y1="188.3" x2="715.6" y2="116.6" xlink:href="#_名称未設定グラデーション_178"/>
    <linearGradient id="_名称未設定グラデーション_178-15" data-name="名称未設定グラデーション 178" x1="800.1" y1="188.6" x2="800.1" y2="94.1" xlink:href="#_名称未設定グラデーション_178"/>
  </defs>
  <g>
    <g id="LWPOLYLINE-8">
      <path class="cls-1" d="M227,149.7h-72.8c-7.5,0-13.6,6.1-13.6,13.6s6.1,13.6,13.6,13.6h72.8c7.5,0,13.6-6.1,13.6-13.6s-6.1-13.6-13.6-13.6Z"/>
    </g>
    <g id="LWPOLYLINE-9">
      <path class="cls-1" d="M117.8,167.9h72.8c7.5,0,13.6,6.1,13.6,13.6s-6.1,13.6-13.6,13.6h-72.8c-7.5,0-13.6-6.1-13.6-13.6s6.1-13.6,13.6-13.6Z"/>
    </g>
  </g>
  <g>
    <g id="LWPOLYLINE">
      <path class="cls-7" d="M216.1,146h-61.9c-9,0-16.5,6.9-17.2,15.8-9.3-11.6-12.4-27-8.3-41.3,7-24.1,32.3-38,56.4-30.9,24.1,7.1,38,32.3,30.9,56.4h.1Z"/>
    </g>
    <g id="LWPOLYLINE-2">
      <polygon class="cls-7" points="172.3 81.5 190.2 84.7 184 67.6 172.3 81.5"/>
    </g>
    <g id="LWPOLYLINE-3">
      <polygon class="cls-7" points="135.7 96.8 150.6 86.3 134.1 78.7 135.7 96.8"/>
    </g>
    <g id="LWPOLYLINE-4">
      <polygon class="cls-7" points="120.6 133.4 123.8 115.5 106.7 121.7 120.6 133.4"/>
    </g>
    <g id="LWPOLYLINE-5">
      <polygon class="cls-7" points="131.9 164.2 125.4 155.1 121.2 164.2 131.9 164.2"/>
    </g>
    <g id="LWPOLYLINE-6">
      <path class="cls-7" d="M236.6,143.6l-12.4-10.4-2.3,12.8h5.1c.9,0,1.9,0,2.8.2,0,0,6.8-2.6,6.8-2.6Z"/>
    </g>
    <g id="LWPOLYLINE-7">
      <polygon class="cls-7" points="208.9 96.6 219.3 111.5 227 95 208.9 96.6"/>
    </g>
  </g>
  <g>
    <g id="LWPOLYLINE-2" data-name="LWPOLYLINE">
      <path class="cls-12" d="M216.1,146h-61.9c-9,0-16.5,6.9-17.2,15.8-9.3-11.6-12.4-27-8.3-41.3,7-24.1,32.3-38,56.4-30.9,24.1,7.1,38,32.3,30.9,56.4h.1Z"/>
    </g>
    <g id="LWPOLYLINE-2-2" data-name="LWPOLYLINE-2">
      <polygon class="cls-12" points="172.3 81.5 190.2 84.7 184 67.6 172.3 81.5"/>
    </g>
    <g id="LWPOLYLINE-3-2" data-name="LWPOLYLINE-3">
      <polygon class="cls-12" points="135.7 96.8 150.6 86.3 134.1 78.7 135.7 96.8"/>
    </g>
    <g id="LWPOLYLINE-4-2" data-name="LWPOLYLINE-4">
      <polygon class="cls-12" points="120.6 133.4 123.8 115.5 106.7 121.7 120.6 133.4"/>
    </g>
    <g id="LWPOLYLINE-5-2" data-name="LWPOLYLINE-5">
      <polygon class="cls-12" points="131.9 164.2 125.4 155.1 121.2 164.2 131.9 164.2"/>
    </g>
    <g id="LWPOLYLINE-6-2" data-name="LWPOLYLINE-6">
      <path class="cls-12" d="M236.6,143.6l-12.4-10.4-2.3,12.8h5.1c.9,0,1.9,0,2.8.2,0,0,6.8-2.6,6.8-2.6Z"/>
    </g>
    <g id="LWPOLYLINE-7-2" data-name="LWPOLYLINE-7">
      <polygon class="cls-12" points="208.9 96.6 219.3 111.5 227 95 208.9 96.6"/>
    </g>
  </g>
  <g>
    <g id="LWPOLYLINE-8-2" data-name="LWPOLYLINE-8">
      <path class="cls-11" d="M227,149.7h-72.8c-7.5,0-13.6,6.1-13.6,13.6s6.1,13.6,13.6,13.6h72.8c7.5,0,13.6-6.1,13.6-13.6s-6.1-13.6-13.6-13.6Z"/>
    </g>
    <g id="LWPOLYLINE-9-2" data-name="LWPOLYLINE-9">
      <path class="cls-11" d="M117.8,167.9h72.8c7.5,0,13.6,6.1,13.6,13.6s-6.1,13.6-13.6,13.6h-72.8c-7.5,0-13.6-6.1-13.6-13.6s6.1-13.6,13.6-13.6Z"/>
    </g>
  </g>
  <g>
    <path class="cls-10" d="M332.1,187.4c-3.6,0-7.8-1.8-10.5-5.1l-23.4-28.8h-6v25.2c0,5.4-4.5,8.7-11.7,8.7s-11.4-3.3-11.4-8.7v-68.4c0-9.9,4.8-14.7,15-14.7h19.2c17.1,0,39.9,5.1,39.9,28.8s-8.7,23.4-21.6,26.1l19.2,20.1c1.8,2.1,2.7,4.8,2.7,6.6,0,6-4.2,10.2-11.1,10.2h-.3ZM319.5,125c0-8.4-5.1-14.1-16.2-14.1h-7.8c-1.8,0-3,.9-3,3v24.9h11.7c9.9,0,15.3-5.4,15.3-13.8h0Z"/>
    <path class="cls-9" d="M411.3,157.4h-35.4c.9,7.5,5.7,13.8,14.4,13.8s10.8-1.8,14.4-3.6c4.2-2.4,7.2-3.9,10.8-3.9s8.4,2.7,8.4,8.1-2.7,6.9-5.4,8.7c-6.9,4.8-16.5,7.2-27.9,7.2s-21-2.7-27.9-9c-6-6-10.2-13.8-10.2-27s3-19.2,10.2-26.7c5.7-5.7,15.3-8.7,27-8.7s19.2,2.7,25.8,9.3c7.2,7.2,9.6,16.2,9.6,20.1,0,8.1-5.1,11.4-13.5,11.4l-.3.3ZM401.7,144.5s-1.8-7.8-4.8-11.1c-2.4-2.4-4.8-3.6-7.8-3.6-6.3,0-11.7,4.2-13.2,16.2h24s1.8-.6,1.8-1.5h0Z"/>
    <path class="cls-3" d="M446.7,112.4c-7.5,0-12-3.3-12-9.6s4.5-9.3,12-9.3,12.3,3.3,12.3,9.6-4.8,9.3-12.3,9.3ZM447,187.4c-7.2,0-11.7-3-11.7-8.7v-51.9c0-6,4.8-9,11.7-9s11.4,3.3,11.4,9v51.9c0,5.7-4.2,9-11.4,9v-.3Z"/>
    <path class="cls-2" d="M515.4,137c-3.6,0-4.2-1.2-9.6-1.2s-10.8,5.7-10.8,18.6v24c0,5.7-4.5,9-11.4,9s-11.7-3-11.7-9v-51.9c0-5.7,5.1-9,12-9s10.8,3,11.1,7.8c3.6-4.2,9.6-8.7,15.6-8.7s12.3,3.9,12.3,10.2-4.5,10.2-7.5,10.2Z"/>
    <path class="cls-5" d="M589.2,187.4c-6.3,0-10.2-2.4-12.3-6.3h0c-5.4,4.2-15,7.2-24,7.2-16.2,0-25.8-7.2-25.8-19.8s10.5-21.6,46.2-26.7v-1.5c0-5.4-2.4-9.3-9-9.3s-7.8,1.5-13.8,4.5c-3.3,1.8-9,4.2-12,4.2-5.7,0-8.4-4.8-8.4-9.6s.9-4.2,4.2-6.6c5.7-3.6,16.2-6.9,30-6.9s31.5,5.4,31.5,27.6v7.5c0,12.6.3,15.6,2.1,19.8.9,1.8,2.1,4.8,2.1,6,0,6.6-4.5,9.9-11.1,9.9h.3ZM573,154.4c-16.5,2.1-22.5,6.6-22.5,12.6s3,6.9,8.4,6.9,9.3-1.2,14.7-4.5c-.6-4.5-.9-11.4-.6-15Z"/>
    <path class="cls-6" d="M668.4,186.5h-39.3c-12,0-16.5-3.9-16.5-15.6v-67.2c0-5.7,4.2-9,11.4-9s11.7,3.3,11.7,9v64.2c0,1.8,1.2,2.7,3,2.7h30c3.9,0,6,3,6,7.5s-2.4,8.4-6,8.4h-.3Z"/>
    <path class="cls-8" d="M741.3,187.4c-6.3,0-10.2-2.4-12.3-6.3h0c-5.4,4.2-15,7.2-24,7.2-16.2,0-25.8-7.2-25.8-19.8s10.5-21.6,46.2-26.7v-1.5c0-5.4-2.4-9.3-9-9.3s-7.8,1.5-13.8,4.5c-3.3,1.8-9,4.2-12,4.2-5.7,0-8.4-4.8-8.4-9.6s.9-4.2,4.2-6.6c5.7-3.6,16.2-6.9,30-6.9s31.5,5.4,31.5,27.6v7.5c0,12.6.3,15.6,2.1,19.8.9,1.8,2.1,4.8,2.1,6,0,6.6-4.5,9.9-11.1,9.9h.3ZM725.1,154.4c-16.5,2.1-22.5,6.6-22.5,12.6s3,6.9,8.4,6.9,9.3-1.2,14.7-4.5c-.6-4.5-.9-11.4-.6-15Z"/>
    <path class="cls-4" d="M805.5,188.3c-8.1,0-14.7-3-19.2-7.2h0c-.6,1.8-1.2,3-2.7,4.2s-3.6,2.1-7.5,2.1c-8.4,0-12-3-12-10.5v-73.8c0-6,4.2-9,11.4-9s11.4,3,11.4,9v20.1c5.1-3.6,11.1-6,19.5-6,15.6,0,29.7,12.3,29.7,35.4s-8.1,36-30.3,36l-.3-.3ZM812.1,152.6c0-10.8-3-19.8-13.2-19.8s-12.3,5.1-12.3,11.1v17.1c0,5.4,5.4,11.1,12.6,11.1s12.9-6.3,12.9-19.2h0v-.3Z"/>
  </g>
  <g>
    <path class="cls-18" d="M332.1,187.4c-3.6,0-7.8-1.8-10.5-5.1l-23.4-28.8h-6v25.2c0,5.4-4.5,8.7-11.7,8.7s-11.4-3.3-11.4-8.7v-68.4c0-9.9,4.8-14.7,15-14.7h19.2c17.1,0,39.9,5.1,39.9,28.8s-8.7,23.4-21.6,26.1l19.2,20.1c1.8,2.1,2.7,4.8,2.7,6.6,0,6-4.2,10.2-11.1,10.2h-.3ZM319.5,125c0-8.4-5.1-14.1-16.2-14.1h-7.8c-1.8,0-3,.9-3,3v24.9h11.7c9.9,0,15.3-5.4,15.3-13.8h0Z"/>
    <path class="cls-17" d="M411.3,157.4h-35.4c.9,7.5,5.7,13.8,14.4,13.8s10.8-1.8,14.4-3.6c4.2-2.4,7.2-3.9,10.8-3.9s8.4,2.7,8.4,8.1-2.7,6.9-5.4,8.7c-6.9,4.8-16.5,7.2-27.9,7.2s-21-2.7-27.9-9c-6-6-10.2-13.8-10.2-27s3-19.2,10.2-26.7c5.7-5.7,15.3-8.7,27-8.7s19.2,2.7,25.8,9.3c7.2,7.2,9.6,16.2,9.6,20.1,0,8.1-5.1,11.4-13.5,11.4l-.3.3ZM401.7,144.5s-1.8-7.8-4.8-11.1c-2.4-2.4-4.8-3.6-7.8-3.6-6.3,0-11.7,4.2-13.2,16.2h24s1.8-.6,1.8-1.5h0Z"/>
    <path class="cls-13" d="M446.7,112.4c-7.5,0-12-3.3-12-9.6s4.5-9.3,12-9.3,12.3,3.3,12.3,9.6-4.8,9.3-12.3,9.3ZM447,187.4c-7.2,0-11.7-3-11.7-8.7v-51.9c0-6,4.8-9,11.7-9s11.4,3.3,11.4,9v51.9c0,5.7-4.2,9-11.4,9v-.3Z"/>
    <path class="cls-16" d="M515.4,137c-3.6,0-4.2-1.2-9.6-1.2s-10.8,5.7-10.8,18.6v24c0,5.7-4.5,9-11.4,9s-11.7-3-11.7-9v-51.9c0-5.7,5.1-9,12-9s10.8,3,11.1,7.8c3.6-4.2,9.6-8.7,15.6-8.7s12.3,3.9,12.3,10.2-4.5,10.2-7.5,10.2Z"/>
    <path class="cls-14" d="M589.2,187.4c-6.3,0-10.2-2.4-12.3-6.3h0c-5.4,4.2-15,7.2-24,7.2-16.2,0-25.8-7.2-25.8-19.8s10.5-21.6,46.2-26.7v-1.5c0-5.4-2.4-9.3-9-9.3s-7.8,1.5-13.8,4.5c-3.3,1.8-9,4.2-12,4.2-5.7,0-8.4-4.8-8.4-9.6s.9-4.2,4.2-6.6c5.7-3.6,16.2-6.9,30-6.9s31.5,5.4,31.5,27.6v7.5c0,12.6.3,15.6,2.1,19.8.9,1.8,2.1,4.8,2.1,6,0,6.6-4.5,9.9-11.1,9.9h.3ZM573,154.4c-16.5,2.1-22.5,6.6-22.5,12.6s3,6.9,8.4,6.9,9.3-1.2,14.7-4.5c-.6-4.5-.9-11.4-.6-15Z"/>
    <path class="cls-20" d="M668.4,186.5h-39.3c-12,0-16.5-3.9-16.5-15.6v-67.2c0-5.7,4.2-9,11.4-9s11.7,3.3,11.7,9v64.2c0,1.8,1.2,2.7,3,2.7h30c3.9,0,6,3,6,7.5s-2.4,8.4-6,8.4h-.3Z"/>
    <path class="cls-15" d="M741.3,187.4c-6.3,0-10.2-2.4-12.3-6.3h0c-5.4,4.2-15,7.2-24,7.2-16.2,0-25.8-7.2-25.8-19.8s10.5-21.6,46.2-26.7v-1.5c0-5.4-2.4-9.3-9-9.3s-7.8,1.5-13.8,4.5c-3.3,1.8-9,4.2-12,4.2-5.7,0-8.4-4.8-8.4-9.6s.9-4.2,4.2-6.6c5.7-3.6,16.2-6.9,30-6.9s31.5,5.4,31.5,27.6v7.5c0,12.6.3,15.6,2.1,19.8.9,1.8,2.1,4.8,2.1,6,0,6.6-4.5,9.9-11.1,9.9h.3ZM725.1,154.4c-16.5,2.1-22.5,6.6-22.5,12.6s3,6.9,8.4,6.9,9.3-1.2,14.7-4.5c-.6-4.5-.9-11.4-.6-15Z"/>
    <path class="cls-19" d="M805.5,188.3c-8.1,0-14.7-3-19.2-7.2h0c-.6,1.8-1.2,3-2.7,4.2s-3.6,2.1-7.5,2.1c-8.4,0-12-3-12-10.5v-73.8c0-6,4.2-9,11.4-9s11.4,3,11.4,9v20.1c5.1-3.6,11.1-6,19.5-6,15.6,0,29.7,12.3,29.7,35.4s-8.1,36-30.3,36l-.3-.3ZM812.1,152.6c0-10.8-3-19.8-13.2-19.8s-12.3,5.1-12.3,11.1v17.1c0,5.4,5.4,11.1,12.6,11.1s12.9-6.3,12.9-19.2h0v-.3Z"/>
  </g>
</svg>